<mxfile host="app.diagrams.net" modified="2022-10-25T08:04:58.170Z" agent="5.0 (Windows NT 10.0; Win64; x64) AppleWebKit/537.36 (KHTML, like Gecko) Chrome/106.0.0.0 Safari/537.36" etag="5LqUvDLjz5BXe96ghp0F" version="20.5.1" type="github">
  <diagram id="QCKNJoFfkn1FVYSqI5_h" name="Pagina-1">
    <mxGraphModel dx="1038" dy="539" grid="1" gridSize="10" guides="1" tooltips="1" connect="1" arrows="1" fold="1" page="1" pageScale="1" pageWidth="827" pageHeight="1169" math="0" shadow="0">
      <root>
        <mxCell id="0" />
        <mxCell id="1" parent="0" />
        <mxCell id="LL6nq5Zrvo22vuqYhJmG-1" value="story&lt;br&gt;you wake up&amp;nbsp;" style="rounded=0;whiteSpace=wrap;html=1;fontFamily=Comic Sans MS;fontStyle=1" vertex="1" parent="1">
          <mxGeometry x="370" y="40" width="120" height="60" as="geometry" />
        </mxCell>
        <mxCell id="LL6nq5Zrvo22vuqYhJmG-2" value="neem de pillen&amp;nbsp;" style="rounded=0;whiteSpace=wrap;html=1;fontFamily=Comic Sans MS;fontStyle=1;fontSize=12;" vertex="1" parent="1">
          <mxGeometry x="160" y="100" width="120" height="60" as="geometry" />
        </mxCell>
        <mxCell id="LL6nq5Zrvo22vuqYhJmG-3" value="niet de pillen nemen" style="rounded=0;whiteSpace=wrap;html=1;fontFamily=Comic Sans MS;fontStyle=1" vertex="1" parent="1">
          <mxGeometry x="560" y="100" width="120" height="60" as="geometry" />
        </mxCell>
        <mxCell id="LL6nq5Zrvo22vuqYhJmG-4" value="&lt;font style=&quot;font-size: 14px;&quot; face=&quot;Comic Sans MS&quot;&gt;&lt;span style=&quot;font-weight: normal;&quot;&gt;story&lt;br&gt;speeking&amp;nbsp;&lt;br&gt;&lt;/span&gt;&lt;/font&gt;" style="rounded=0;whiteSpace=wrap;html=1;fontFamily=Helvetica;fontStyle=1;fontSize=16;" vertex="1" parent="1">
          <mxGeometry x="80" y="200" width="120" height="60" as="geometry" />
        </mxCell>
        <mxCell id="LL6nq5Zrvo22vuqYhJmG-5" value="vull antworden in" style="rounded=0;whiteSpace=wrap;html=1;fontFamily=Comic Sans MS;fontStyle=1" vertex="1" parent="1">
          <mxGeometry x="240" y="200" width="120" height="60" as="geometry" />
        </mxCell>
        <mxCell id="LL6nq5Zrvo22vuqYhJmG-6" value="&lt;font face=&quot;Comic Sans MS&quot;&gt;&lt;b&gt;drink melle water&lt;/b&gt;&lt;/font&gt;" style="rounded=0;whiteSpace=wrap;html=1;" vertex="1" parent="1">
          <mxGeometry x="480" y="200" width="120" height="60" as="geometry" />
        </mxCell>
        <mxCell id="LL6nq5Zrvo22vuqYhJmG-7" value="&lt;font face=&quot;Comic Sans MS&quot;&gt;&lt;b&gt;niet drinken&amp;nbsp;&lt;/b&gt;&lt;/font&gt;" style="rounded=0;whiteSpace=wrap;html=1;" vertex="1" parent="1">
          <mxGeometry x="640" y="200" width="120" height="60" as="geometry" />
        </mxCell>
        <mxCell id="LL6nq5Zrvo22vuqYhJmG-8" value="" style="rounded=0;whiteSpace=wrap;html=1;" vertex="1" parent="1">
          <mxGeometry x="170" y="340" width="120" height="60" as="geometry" />
        </mxCell>
        <mxCell id="LL6nq5Zrvo22vuqYhJmG-9" value="bad ending&lt;br&gt;&amp;nbsp;&lt;br&gt;*rebel*" style="rounded=0;whiteSpace=wrap;html=1;fontStyle=1;fontFamily=Comic Sans MS;" vertex="1" parent="1">
          <mxGeometry x="640" y="270" width="120" height="60" as="geometry" />
        </mxCell>
        <mxCell id="LL6nq5Zrvo22vuqYhJmG-10" value="nep antworden in vullen&amp;nbsp;" style="rounded=0;whiteSpace=wrap;html=1;" vertex="1" parent="1">
          <mxGeometry x="480" y="290" width="120" height="60" as="geometry" />
        </mxCell>
        <mxCell id="LL6nq5Zrvo22vuqYhJmG-11" value="" style="endArrow=none;html=1;rounded=0;fontFamily=Comic Sans MS;exitX=1;exitY=0.5;exitDx=0;exitDy=0;" edge="1" parent="1" source="LL6nq5Zrvo22vuqYhJmG-2">
          <mxGeometry width="50" height="50" relative="1" as="geometry">
            <mxPoint x="320" y="150" as="sourcePoint" />
            <mxPoint x="370" y="100" as="targetPoint" />
          </mxGeometry>
        </mxCell>
        <mxCell id="LL6nq5Zrvo22vuqYhJmG-12" value="" style="endArrow=none;html=1;rounded=0;fontFamily=Comic Sans MS;exitX=0;exitY=0.5;exitDx=0;exitDy=0;entryX=1;entryY=1;entryDx=0;entryDy=0;" edge="1" parent="1" source="LL6nq5Zrvo22vuqYhJmG-3" target="LL6nq5Zrvo22vuqYhJmG-1">
          <mxGeometry width="50" height="50" relative="1" as="geometry">
            <mxPoint x="520" y="110" as="sourcePoint" />
            <mxPoint x="610" y="80" as="targetPoint" />
          </mxGeometry>
        </mxCell>
        <mxCell id="LL6nq5Zrvo22vuqYhJmG-13" value="" style="endArrow=none;html=1;rounded=0;fontFamily=Comic Sans MS;exitX=1;exitY=0.5;exitDx=0;exitDy=0;" edge="1" parent="1" source="LL6nq5Zrvo22vuqYhJmG-4">
          <mxGeometry width="50" height="50" relative="1" as="geometry">
            <mxPoint x="340" y="290" as="sourcePoint" />
            <mxPoint x="240" y="230" as="targetPoint" />
          </mxGeometry>
        </mxCell>
        <mxCell id="LL6nq5Zrvo22vuqYhJmG-14" value="" style="endArrow=none;html=1;rounded=0;fontFamily=Comic Sans MS;entryX=0;entryY=1;entryDx=0;entryDy=0;exitX=1;exitY=0;exitDx=0;exitDy=0;" edge="1" parent="1" source="LL6nq5Zrvo22vuqYhJmG-4" target="LL6nq5Zrvo22vuqYhJmG-2">
          <mxGeometry width="50" height="50" relative="1" as="geometry">
            <mxPoint x="70" y="140" as="sourcePoint" />
            <mxPoint x="120" y="90" as="targetPoint" />
          </mxGeometry>
        </mxCell>
        <mxCell id="LL6nq5Zrvo22vuqYhJmG-15" value="" style="endArrow=none;html=1;rounded=0;fontFamily=Comic Sans MS;entryX=1;entryY=1;entryDx=0;entryDy=0;exitX=0;exitY=0;exitDx=0;exitDy=0;" edge="1" parent="1" source="LL6nq5Zrvo22vuqYhJmG-7" target="LL6nq5Zrvo22vuqYhJmG-3">
          <mxGeometry width="50" height="50" relative="1" as="geometry">
            <mxPoint x="710" y="200" as="sourcePoint" />
            <mxPoint x="760" y="150" as="targetPoint" />
          </mxGeometry>
        </mxCell>
        <mxCell id="LL6nq5Zrvo22vuqYhJmG-17" value="" style="endArrow=none;html=1;rounded=0;fontFamily=Comic Sans MS;fontSize=14;entryX=0;entryY=1;entryDx=0;entryDy=0;exitX=1;exitY=0;exitDx=0;exitDy=0;" edge="1" parent="1" source="LL6nq5Zrvo22vuqYhJmG-6" target="LL6nq5Zrvo22vuqYhJmG-3">
          <mxGeometry width="50" height="50" relative="1" as="geometry">
            <mxPoint x="350" y="290" as="sourcePoint" />
            <mxPoint x="400" y="240" as="targetPoint" />
          </mxGeometry>
        </mxCell>
        <mxCell id="LL6nq5Zrvo22vuqYhJmG-19" value="" style="curved=1;endArrow=classic;html=1;rounded=0;fontFamily=Comic Sans MS;fontSize=14;entryX=1;entryY=0;entryDx=0;entryDy=0;exitX=0.75;exitY=0;exitDx=0;exitDy=0;" edge="1" parent="1" source="LL6nq5Zrvo22vuqYhJmG-7" target="LL6nq5Zrvo22vuqYhJmG-9">
          <mxGeometry width="50" height="50" relative="1" as="geometry">
            <mxPoint x="770" y="200" as="sourcePoint" />
            <mxPoint x="820" y="140" as="targetPoint" />
            <Array as="points">
              <mxPoint x="820" y="190" />
              <mxPoint x="770" y="140" />
            </Array>
          </mxGeometry>
        </mxCell>
        <mxCell id="LL6nq5Zrvo22vuqYhJmG-20" value="" style="endArrow=none;html=1;rounded=0;fontFamily=Comic Sans MS;fontSize=14;entryX=0.5;entryY=1;entryDx=0;entryDy=0;" edge="1" parent="1" target="LL6nq5Zrvo22vuqYhJmG-6">
          <mxGeometry width="50" height="50" relative="1" as="geometry">
            <mxPoint x="540" y="290" as="sourcePoint" />
            <mxPoint x="400" y="220" as="targetPoint" />
          </mxGeometry>
        </mxCell>
        <mxCell id="LL6nq5Zrvo22vuqYhJmG-21" value="sleep" style="rounded=0;whiteSpace=wrap;html=1;fontFamily=Comic Sans MS;fontSize=14;" vertex="1" parent="1">
          <mxGeometry x="160" y="270" width="120" height="20" as="geometry" />
        </mxCell>
        <mxCell id="LL6nq5Zrvo22vuqYhJmG-22" value="" style="endArrow=none;html=1;rounded=0;fontFamily=Comic Sans MS;fontSize=14;entryX=0.5;entryY=1;entryDx=0;entryDy=0;exitX=0.5;exitY=1;exitDx=0;exitDy=0;" edge="1" parent="1" source="LL6nq5Zrvo22vuqYhJmG-21" target="LL6nq5Zrvo22vuqYhJmG-4">
          <mxGeometry width="50" height="50" relative="1" as="geometry">
            <mxPoint x="80" y="340" as="sourcePoint" />
            <mxPoint x="130" y="290" as="targetPoint" />
            <Array as="points">
              <mxPoint x="170" y="340" />
            </Array>
          </mxGeometry>
        </mxCell>
      </root>
    </mxGraphModel>
  </diagram>
</mxfile>
